HIERARCHY
ROOT Hips
{
    OFFSET   0.000000   0.000000   0.000000
    CHANNELS 6 Xposition Yposition Zposition Zrotation Xrotation Yrotation
    JOINT Chest
    {
        OFFSET   0.000000   8.007230   0.000000
        CHANNELS 3 Zrotation Xrotation Yrotation
        JOINT Chest2
        {
            OFFSET   0.000000  22.077100   0.000000
            CHANNELS 3 Zrotation Xrotation Yrotation
            JOINT Neck
            {
                OFFSET   0.000000  23.254800  -0.000021
                CHANNELS 3 Zrotation Xrotation Yrotation
                JOINT Head
                {
                    OFFSET   0.000000  14.370000   1.956610
                    CHANNELS 3 Zrotation Xrotation Yrotation
                    End Site
                    {
                        OFFSET   0.000000  19.566000   0.000000
                    }
                }
            }
            JOINT LeftCollar
            {
                OFFSET   3.911900  19.017000  -0.467063
                CHANNELS 3 Zrotation Xrotation Yrotation
                JOINT LeftShoulder
                {
                    OFFSET  10.383700   0.000000   0.000000
                    CHANNELS 3 Zrotation Xrotation Yrotation
                    JOINT LeftElbow
                    {
                        OFFSET  26.662100   0.001529   0.000325
                        CHANNELS 3 Zrotation Xrotation Yrotation
                        JOINT LeftWrist
                        {
                            OFFSET  28.869000  -0.000011  -0.000096
                            CHANNELS 3 Zrotation Xrotation Yrotation
                            JOINT LeftFinger0
                            {
                                OFFSET   2.044650  -2.323460   3.252850
                                CHANNELS 3 Zrotation Xrotation Yrotation
                                JOINT LeftFinger01
                                {
                                    OFFSET   3.088130   0.000000   0.000000
                                    CHANNELS 3 Zrotation Xrotation Yrotation
                                    JOINT LeftFinger02
                                    {
                                        OFFSET   2.639460   0.000000   0.000000
                                        CHANNELS 3 Zrotation Xrotation Yrotation
                                        End Site
                                        {
                                            OFFSET   2.582190   0.000000   0.000000
                                        }
                                    }
                                }
                            }
                            JOINT LeftFinger1
                            {
                                OFFSET   8.364480   0.000000   3.252850
                                CHANNELS 3 Zrotation Xrotation Yrotation
                                JOINT LeftFinger11
                                {
                                    OFFSET   4.646930   0.000000   0.000000
                                    CHANNELS 3 Zrotation Xrotation Yrotation
                                    JOINT LeftFinger12
                                    {
                                        OFFSET   2.323460   0.000000   0.000000
                                        CHANNELS 3 Zrotation Xrotation Yrotation
                                        End Site
                                        {
                                            OFFSET   2.273050   0.000000   0.000000
                                        }
                                    }
                                }
                            }
                            JOINT LeftFinger2
                            {
                                OFFSET   8.364480   0.000016   1.078090
                                CHANNELS 3 Zrotation Xrotation Yrotation
                                JOINT LeftFinger21
                                {
                                    OFFSET   5.111620   0.000000   0.000000
                                    CHANNELS 3 Zrotation Xrotation Yrotation
                                    JOINT LeftFinger22
                                    {
                                        OFFSET   2.788160   0.000017   0.000000
                                        CHANNELS 3 Zrotation Xrotation Yrotation
                                        End Site
                                        {
                                            OFFSET   2.727660   0.000000   0.000000
                                        }
                                    }
                                }
                            }
                            JOINT LeftFinger3
                            {
                                OFFSET   7.899780   0.000015  -1.078090
                                CHANNELS 3 Zrotation Xrotation Yrotation
                                JOINT LeftFinger31
                                {
                                    OFFSET   4.646920   0.000000   0.000000
                                    CHANNELS 3 Zrotation Xrotation Yrotation
                                    JOINT LeftFinger32
                                    {
                                        OFFSET   2.323470   0.000000   0.000000
                                        CHANNELS 3 Zrotation Xrotation Yrotation
                                        End Site
                                        {
                                            OFFSET   2.273050   0.000000   0.000000
                                        }
                                    }
                                }
                            }
                            JOINT LeftFinger4
                            {
                                OFFSET   7.435090   0.000000  -3.252850
                                CHANNELS 3 Zrotation Xrotation Yrotation
                                JOINT LeftFinger41
                                {
                                    OFFSET   3.717550   0.000000   0.000000
                                    CHANNELS 3 Zrotation Xrotation Yrotation
                                    JOINT LeftFinger42
                                    {
                                        OFFSET   1.858760   0.000000   0.000000
                                        CHANNELS 3 Zrotation Xrotation Yrotation
                                        End Site
                                        {
                                            OFFSET   1.818440   0.000000   0.000000
                                        }
                                    }
                                }
                            }
                        }
                    }
                }
            }
            JOINT RightCollar
            {
                OFFSET  -3.911900  19.017000  -0.467062
                CHANNELS 3 Zrotation Xrotation Yrotation
                JOINT RightShoulder
                {
                    OFFSET -10.383700   0.000015   0.000000
                    CHANNELS 3 Zrotation Xrotation Yrotation
                    JOINT RightElbow
                    {
                        OFFSET -26.662100   0.001341   0.000385
                        CHANNELS 3 Zrotation Xrotation Yrotation
                        JOINT RightWrist
                        {
                            OFFSET -28.869000   0.000025  -0.000080
                            CHANNELS 3 Zrotation Xrotation Yrotation
                            JOINT RightFinger0
                            {
                                OFFSET  -2.044650  -2.323490   3.252850
                                CHANNELS 3 Zrotation Xrotation Yrotation
                                JOINT RightFinger01
                                {
                                    OFFSET  -3.088130   0.000000   0.000000
                                    CHANNELS 3 Zrotation Xrotation Yrotation
                                    JOINT RightFinger02
                                    {
                                        OFFSET  -2.639460   0.000000   0.000000
                                        CHANNELS 3 Zrotation Xrotation Yrotation
                                        End Site
                                        {
                                            OFFSET  -2.582190   0.000000   0.000000
                                        }
                                    }
                                }
                            }
                            JOINT RightFinger1
                            {
                                OFFSET  -8.364480   0.000000   3.252850
                                CHANNELS 3 Zrotation Xrotation Yrotation
                                JOINT RightFinger11
                                {
                                    OFFSET  -4.646930   0.000000   0.000000
                                    CHANNELS 3 Zrotation Xrotation Yrotation
                                    JOINT RightFinger12
                                    {
                                        OFFSET  -2.323470   0.000000   0.000000
                                        CHANNELS 3 Zrotation Xrotation Yrotation
                                        End Site
                                        {
                                            OFFSET  -2.273050   0.000000   0.000000
                                        }
                                    }
                                }
                            }
                            JOINT RightFinger2
                            {
                                OFFSET  -8.364480   0.000000   1.078090
                                CHANNELS 3 Zrotation Xrotation Yrotation
                                JOINT RightFinger21
                                {
                                    OFFSET  -5.111610   0.000000   0.000000
                                    CHANNELS 3 Zrotation Xrotation Yrotation
                                    JOINT RightFinger22
                                    {
                                        OFFSET  -2.788160   0.000000   0.000000
                                        CHANNELS 3 Zrotation Xrotation Yrotation
                                        End Site
                                        {
                                            OFFSET  -2.727660   0.000000   0.000000
                                        }
                                    }
                                }
                            }
                            JOINT RightFinger3
                            {
                                OFFSET  -7.899780   0.000000  -1.078090
                                CHANNELS 3 Zrotation Xrotation Yrotation
                                JOINT RightFinger31
                                {
                                    OFFSET  -4.646920   0.000000   0.000000
                                    CHANNELS 3 Zrotation Xrotation Yrotation
                                    JOINT RightFinger32
                                    {
                                        OFFSET  -2.323470   0.000000   0.000000
                                        CHANNELS 3 Zrotation Xrotation Yrotation
                                        End Site
                                        {
                                            OFFSET  -2.273050   0.000000   0.000000
                                        }
                                    }
                                }
                            }
                            JOINT RightFinger4
                            {
                                OFFSET  -7.435090   0.000000  -3.252850
                                CHANNELS 3 Zrotation Xrotation Yrotation
                                JOINT RightFinger41
                                {
                                    OFFSET  -3.717550   0.000000   0.000000
                                    CHANNELS 3 Zrotation Xrotation Yrotation
                                    JOINT RightFinger42
                                    {
                                        OFFSET  -1.858770   0.000000   0.000000
                                        CHANNELS 3 Zrotation Xrotation Yrotation
                                        End Site
                                        {
                                            OFFSET  -1.818440   0.000000   0.000000
                                        }
                                    }
                                }
                            }
                        }
                    }
                }
            }
        }
    }
    JOINT LeftHip
    {
        OFFSET   9.783010   0.000000   0.000000
        CHANNELS 3 Zrotation Xrotation Yrotation
        JOINT LeftKnee
        {
            OFFSET   0.000070 -41.789100   0.000028
            CHANNELS 3 Zrotation Xrotation Yrotation
            JOINT LeftAnkle
            {
                OFFSET   0.000087 -41.133200  -0.000100
                CHANNELS 3 Zrotation Xrotation Yrotation
                JOINT LeftToe
                {
                    OFFSET   0.000000  -6.358960  14.674500
                    CHANNELS 3 Zrotation Xrotation Yrotation
                    End Site
                    {
                        OFFSET   0.000000   0.000000   3.913200
                    }
                }
            }
        }
    }
    JOINT RightHip
    {
        OFFSET  -9.783020   0.000000   0.000000
        CHANNELS 3 Zrotation Xrotation Yrotation
        JOINT RightKnee
        {
            OFFSET   0.000044 -41.789100  -0.000870
            CHANNELS 3 Zrotation Xrotation Yrotation
            JOINT RightAnkle
            {
                OFFSET  -0.000090 -41.133200  -0.000245
                CHANNELS 3 Zrotation Xrotation Yrotation
                JOINT RightToe
                {
                    OFFSET   0.000000  -6.358960  14.674500
                    CHANNELS 3 Zrotation Xrotation Yrotation
                    End Site
                    {
                        OFFSET   0.000000   0.000000   3.913200
                    }
                }
            }
        }
    }
}
MOTION
Frames: 5
Frame Time:   0.016667
  0.877653  90.140200   2.585160  -0.876402  -0.936469  -0.270599  -0.215916   2.501290   0.408765  -0.450349   5.000960   0.828155   2.695930   0.198745  -0.017770   4.432080   0.386471   1.174130  -6.459230  -2.033930   5.222370 -69.842000  15.718000   1.978300  -3.686100  -2.660960 -16.064900  12.763900   2.456320  11.166100  43.771900  34.899600 -75.180300 -20.920000  -0.003367   0.007572  -5.460000  -0.004356   0.003326 -26.730900   6.330120 -12.348700 -22.431600  -0.009993  -0.001605 -15.718100  -0.003427   0.003776 -27.510000   2.409030  -4.595030 -29.682900  -0.000478  -0.003341 -19.768800  -0.009736  -0.003737 -23.330700   1.631940  -3.772610 -23.397800  -0.008215  -0.007742 -15.575800  -0.001590  -0.007144 -24.346400   0.720751  -1.567640 -36.534700  -0.009805  -0.008248 -24.329200   0.005190  -0.005885  12.465200   2.222160   4.755780  66.147500  12.366000  -1.651090   3.315200  -9.106070  10.516000 -13.621700 -20.119200   1.509870 -36.931500  28.977300  69.514000  27.006300   0.004917  -0.002424   8.503120  -0.010678   0.003233  21.800200  -0.500768  -1.251900  17.841300  -0.004584  -0.001039  12.488900  -0.001240   0.006218  20.530200  -1.072580  -2.861190  20.557700  -0.001065   0.000358  13.691400  -0.006553  -0.000675  20.040400  -2.338410  -6.382380  20.170800   0.000980  -0.000542  13.433800   0.000464  -0.000575  28.083900  -3.209750  -5.992950  42.362300  -0.000587   0.001290  28.213300   0.006990   0.000944   0.317830   0.605424   2.383030   0.160259   0.556087  11.120000  -5.063440  -2.267970   5.401510  -0.000000   0.000000  -0.000000   1.829600   0.227018  -3.595590  -0.825297   4.150010 -12.308500  -8.973340   0.851211  -1.374710  -0.000000   0.000000   0.000000
  0.871864  90.140300   2.585120  -0.876359  -0.929009  -0.270146  -0.219604   2.507550   0.412665  -0.457953   5.013430   0.836158   2.697080   0.190733  -0.017772   4.432830   0.377261   1.174100  -6.463030  -2.034250   5.220900 -69.825200  15.735500   1.975150  -3.695170  -2.672180 -16.069600  12.765300   2.452310  11.152500  43.769300  34.902600 -75.188200 -20.905400  -0.003361   0.007572  -5.452690  -0.004352   0.003330 -26.734300   6.342140 -12.369600 -22.436200  -0.009991  -0.001591 -15.718100  -0.003426   0.003783 -27.509400   2.409000  -4.603020 -29.688400  -0.000465  -0.003337 -19.772400  -0.009737  -0.003736 -23.332800   1.632950  -3.776800 -23.397700  -0.008206  -0.007733 -15.575800  -0.001590  -0.007135 -24.349200   0.720487  -1.573710 -36.538800  -0.009807  -0.008239 -24.333200   0.005187  -0.005880  12.477400   2.215330   4.768240  66.134100  12.391300  -1.645940   3.320800  -9.126580  10.517000 -13.612800 -20.110700   1.496650 -36.934500  28.983600  69.522500  27.004400   0.004924  -0.002434   8.502180  -0.010688   0.003219  21.801300  -0.495127  -1.237520  17.842000  -0.004583  -0.001042  12.489400  -0.001240   0.006217  20.531500  -1.067920  -2.848440  20.558500  -0.001065   0.000359  13.691900  -0.006553  -0.000676  20.053200  -2.339940  -6.382840  20.183700   0.000983  -0.000542  13.442400   0.000465  -0.000576  28.083900  -3.210200  -5.993480  42.367100  -0.000587   0.001286  28.216500   0.006988   0.000941   0.322026   0.688665   2.389000   0.158251   0.465126  11.095900  -5.074390  -2.268320   5.424460  -0.000000   0.000000   0.000000   1.836060   0.210027  -3.608610  -0.824579   4.162760 -12.304200  -8.978550   0.845577  -1.362950   0.000000   0.000000   0.000000
  0.860697  90.140300   2.585040  -0.876272  -0.921286  -0.266983  -0.226209   2.518090   0.418921  -0.471538   5.034440   0.849033   2.700680   0.182721  -0.017774   4.436930   0.368051   1.174060  -6.470200  -2.034570   5.215790 -69.797000  15.770900   1.967630  -3.709600  -2.693180 -16.080800  12.767700   2.445330  11.130000  43.766800  34.905700 -75.196000 -20.882500  -0.003343   0.007569  -5.441260  -0.004340   0.003333 -26.739500   6.360670 -12.401800 -22.443700  -0.009984  -0.001558 -15.718100  -0.003420   0.003805 -27.508700   2.408960  -4.615750 -29.699800  -0.000430  -0.003327 -19.780000  -0.009742  -0.003732 -23.336600   1.636240  -3.786570 -23.397700  -0.008179  -0.007709 -15.575800  -0.001589  -0.007112 -24.355400   0.720221  -1.583920 -36.548100  -0.009815  -0.008217 -24.341000   0.005178  -0.005864  12.499300   2.203830   4.787500  66.108500  12.428700  -1.640870   3.330370  -9.147090  10.518100 -13.592200 -20.102200   1.475940 -36.933200  28.993000  69.535400  27.002500   0.004930  -0.002444   8.501250  -0.010698   0.003205  21.807500  -0.489485  -1.223150  17.846700  -0.004581  -0.001052  12.492700  -0.001241   0.006215  20.537600  -1.063260  -2.835680  20.563900  -0.001062   0.000360  13.695500  -0.006552  -0.000678  20.075000  -2.344190  -6.386050  20.205800   0.000992  -0.000544  13.457100   0.000469  -0.000582  28.083300  -3.213360  -5.997170  42.377500  -0.000583   0.001274  28.223400   0.006983   0.000934   0.330039   0.771905   2.397270   0.156240   0.374165  11.060400  -5.094890  -2.268660   5.447400  -0.000000   0.000000   0.000000   1.848700   0.184588  -3.634080  -0.824775   4.184570 -12.297400  -8.987690   0.834954  -1.346830   0.000000   0.000000   0.000000
  0.848548  90.140300   2.584930  -0.876022  -0.920981  -0.254120  -0.232767   2.526650   0.423789  -0.484959   5.051490   0.859114   2.707580   0.182978  -0.017727   4.447980   0.368600   1.174140  -6.477560  -2.034540   5.204740 -69.773800  15.812600   1.959310  -3.719950  -2.714970 -16.097000  12.766200   2.439450  11.112600  43.761400  34.904300 -75.192700 -20.868700  -0.003310   0.007560  -5.434350  -0.004322   0.003332 -26.743800   6.372590 -12.422300 -22.450900  -0.009974  -0.001510 -15.718100  -0.003409   0.003845 -27.508100   2.412110  -4.623710 -29.715100  -0.000378  -0.003316 -19.790300  -0.009750  -0.003727 -23.340500   1.642450  -3.800450 -23.397900  -0.008135  -0.007669 -15.575800  -0.001586  -0.007075 -24.365200   0.721895  -1.592000 -36.562900  -0.009826  -0.008182 -24.351000   0.005165  -0.005838  12.520800   2.194230   4.798970  66.081600  12.448800  -1.649060   3.340510  -9.143520  10.515600 -13.569300 -20.102800   1.459140 -36.918100  28.994200  69.546900  27.022400   0.004918  -0.002438   8.511230  -0.010688   0.003209  21.827800  -0.492597  -1.229520  17.863300  -0.004578  -0.001069  12.504300  -0.001243   0.006209  20.553700  -1.067710  -2.845610  20.580100  -0.001056   0.000360  13.706300  -0.006552  -0.000680  20.093900  -2.353490  -6.402590  20.225600   0.001006  -0.000552  13.470300   0.000477  -0.000592  28.089100  -3.223700  -6.013200  42.390600  -0.000575   0.001258  28.232100   0.006976   0.000924   0.338247   0.720915   2.400490   0.161472   0.420662  11.038700  -5.115500  -2.267640   5.445720   0.000000   0.000000  -0.000000   1.862540   0.167789  -3.663280  -0.827908   4.204410 -12.291300  -8.995990   0.823739  -1.341160   0.000000   0.000000   0.000000
  0.834636  90.140200   2.584850  -0.875555  -0.920939  -0.227940  -0.239244   2.535580   0.427618  -0.498179   5.069280   0.867116   2.715480   0.184779  -0.017661   4.461420   0.372449   1.174680  -6.486250  -2.034110   5.193160 -69.751100  15.860000   1.943300  -3.729030  -2.739270 -16.117100  12.762000   2.432540  11.094100  43.759100  34.903000 -75.189300 -20.853900  -0.003266   0.007549  -5.426970  -0.004296   0.003330 -26.744400   6.382220 -12.439800 -22.455700  -0.009963  -0.001450 -15.718100  -0.003392   0.003897 -27.507600   2.418550  -4.632990 -29.730900  -0.000311  -0.003302 -19.800800  -0.009761  -0.003720 -23.343800   1.650140  -3.817340 -23.398800  -0.008077  -0.007617 -15.575700  -0.001584  -0.007026 -24.374100   0.725465  -1.600750 -36.576300  -0.009842  -0.008136 -24.359800   0.005148  -0.005805  12.542600   2.184820   4.810180  66.051900  12.462200  -1.665030   3.351740  -9.138580  10.508900 -13.528900 -20.103400   1.449830 -36.900100  28.994000  69.556300  27.058700   0.004907  -0.002427   8.529370  -0.010677   0.003212  21.853000  -0.495709  -1.235890  17.884100  -0.004575  -0.001092  12.518900  -0.001246   0.006199  20.572300  -1.074170  -2.859470  20.599100  -0.001049   0.000360  13.719000  -0.006551  -0.000682  20.111800  -2.360080  -6.416380  20.244100   0.001026  -0.000564  13.482600   0.000488  -0.000605  28.100700  -3.231330  -6.026070  42.406300  -0.000564   0.001237  28.242600   0.006966   0.000910   0.347215   0.637469   2.401410   0.169870   0.500518  11.028600  -5.138860  -2.265400   5.433940   0.000000   0.000000   0.000000   1.879090   0.159435  -3.695110  -0.832597   4.222520 -12.287800  -9.004750   0.811309  -1.339840  -0.000000   0.000000   0.000000
